0
SECTION
2
HEADER
9
$INSUNITS
70
4
9
$ACADVER
1
AC1014
9
$HANDSEED
5
FFFF
0
ENDSEC
0
SECTION
2
TABLES
0
TABLE
2
VPORT
5
8
100
AcDbSymbolTable
0
ENDTAB
0
TABLE
2
LTYPE
5
5
100
AcDbSymbolTable
0
LTYPE
5
14
100
AcDbSymbolTableRecord
100
AcDbLinetypeTableRecord
2
BYBLOCK
70
0
0
LTYPE
5
15
100
AcDbSymbolTableRecord
100
AcDbLinetypeTableRecord
2
BYLAYER
70
0
0
ENDTAB
0
TABLE
2
LAYER
5
2
100
AcDbSymbolTable
70
2
0
LAYER
5
50
100
AcDbSymbolTableRecord
100
AcDbLayerTableRecord
2
0
70
0
6
CONTINUOUS
0
ENDTAB
0
TABLE
2
STYLE
5
3
100
AcDbSymbolTable
70
1
0
STYLE
5
11
100
AcDbSymbolTableRecord
100
AcDbTextStyleTableRecord
2
STANDARD
70
0
0
ENDTAB
0
TABLE
2
VIEW
5
6
100
AcDbSymbolTable
70
0
0
ENDTAB
0
TABLE
2
UCS
5
7
100
AcDbSymbolTable
70
0
0
ENDTAB
0
TABLE
2
APPID
5
9
100
AcDbSymbolTable
70
2
0
APPID
5
12
100
AcDbSymbolTableRecord
100
AcDbRegAppTableRecord
2
ACAD
70
0
0
ENDTAB
0
TABLE
2
DIMSTYLE
5
A
100
AcDbSymbolTable
70
1
0
ENDTAB
0
TABLE
2
BLOCK_RECORD
5
1
100
AcDbSymbolTable
70
1
0
BLOCK_RECORD
5
1F
100
AcDbSymbolTableRecord
100
AcDbBlockTableRecord
2
*MODEL_SPACE
0
BLOCK_RECORD
5
1B
100
AcDbSymbolTableRecord
100
AcDbBlockTableRecord
2
*PAPER_SPACE
0
ENDTAB
0
ENDSEC
0
SECTION
2
BLOCKS
0
BLOCK
5
20
100
AcDbEntity
100
AcDbBlockBegin
2
*MODEL_SPACE
0
ENDBLK
5
21
100
AcDbEntity
100
AcDbBlockEnd
0
BLOCK
5
1C
100
AcDbEntity
100
AcDbBlockBegin
2
*PAPER_SPACE
0
ENDBLK
5
1D
100
AcDbEntity
100
AcDbBlockEnd
0
ENDSEC
0
SECTION
2
ENTITIES
0
CIRCLE
5
100
100
AcDbEntity
8
0
100
AcDbCircle
10
0
20
0
30
0
40
2.9249999999999998
210
0
220
0
230
1
0
CIRCLE
5
101
100
AcDbEntity
8
0
100
AcDbCircle
10
0
20
0
30
0
40
8.0500000000000007
210
0
220
0
230
1
0
LINE
5
102
100
AcDbEntity
8
0
100
AcDbLine
10
-10.499999999999998
20
-15.830421715465279
30
0
11
-9.5
21
-15.830421715465274
31
0
0
LINE
5
103
100
AcDbEntity
8
0
100
AcDbLine
10
-9.5
20
-15.830421715465274
30
0
11
-9.5
21
-16.330421715465281
31
0
0
LINE
5
104
100
AcDbEntity
8
0
100
AcDbLine
10
-9.5
20
-16.330421715465281
30
0
11
-10.499999999999998
21
-16.330421715465281
31
0
0
LINE
5
105
100
AcDbEntity
8
0
100
AcDbLine
10
-10.499999999999998
20
-16.330421715465281
30
0
11
-10.499999999999998
21
-15.830421715465279
31
0
0
LINE
5
106
100
AcDbEntity
8
0
100
AcDbLine
10
0
20
-35.284162613343717
30
0
11
0
21
29.364028475356179
31
0
0
LINE
5
107
100
AcDbEntity
8
0
100
AcDbLine
10
-10.499999999999998
20
-15.830421715465279
30
0
11
-9.5
21
-16.330421715465281
31
0
0
LINE
5
108
100
AcDbEntity
8
0
100
AcDbLine
10
-10.499999999999998
20
-16.330421715465281
30
0
11
-9.5
21
-15.830421715465274
31
0
0
LINE
5
109
100
AcDbEntity
8
0
100
AcDbLine
10
10.499999999999998
20
-15.830421715465279
30
0
11
9.5
21
-15.830421715465274
31
0
0
LINE
5
110
100
AcDbEntity
8
0
100
AcDbLine
10
10.499999999999998
20
-16.330421715465281
30
0
11
10.499999999999998
21
-15.830421715465279
31
0
0
LINE
5
111
100
AcDbEntity
8
0
100
AcDbLine
10
10.499999999999998
20
-16.330421715465281
30
0
11
9.5
21
-15.830421715465274
31
0
0
LINE
5
112
100
AcDbEntity
8
0
100
AcDbLine
10
10.499999999999998
20
-15.830421715465279
30
0
11
9.5
21
-16.330421715465281
31
0
0
LINE
5
113
100
AcDbEntity
8
0
100
AcDbLine
10
9.5
20
-16.330421715465281
30
0
11
10.499999999999998
21
-16.330421715465281
31
0
0
LINE
5
114
100
AcDbEntity
8
0
100
AcDbLine
10
9.5
20
-15.830421715465274
30
0
11
9.5
21
-16.330421715465281
31
0
0
LINE
5
115
100
AcDbEntity
8
0
100
AcDbLine
10
-10
20
-16.08042171546527
30
0
11
10
21
-16.08042171546527
31
0
0
CIRCLE
5
116
100
AcDbEntity
8
0
100
AcDbCircle
10
-7.5
20
-10.094531945201343
30
0
40
0.75000000000000011
210
0
220
0
230
1
0
CIRCLE
5
117
100
AcDbEntity
8
0
100
AcDbCircle
10
7.5
20
-10.094531945201343
30
0
40
0.75000000000000011
210
0
220
0
230
1
0
CIRCLE
5
118
100
AcDbEntity
8
0
100
AcDbCircle
10
2.7755575615628914e-16
20
-10.845336107219417
30
0
40
1.25
210
0
220
0
230
1
0
CIRCLE
5
119
100
AcDbEntity
8
0
100
AcDbCircle
10
0
20
17.27123592395418
30
0
40
1.9999999999999996
210
0
220
0
230
1
0
CIRCLE
5
120
100
AcDbEntity
8
0
100
AcDbCircle
10
0
20
9
30
0
40
0.50000000000000022
210
0
220
0
230
1
0
CIRCLE
5
121
100
AcDbEntity
8
0
100
AcDbCircle
10
-7.4469799625103539
20
15.658830941780117
30
0
40
0.75000000000000044
210
0
220
0
230
1
0
LINE
5
122
100
AcDbEntity
8
0
100
AcDbLine
10
11.341656035458636
20
-22.429652076048598
30
0
11
-11.341656038298513
21
-22.429652076048598
31
0
0
LINE
5
123
100
AcDbEntity
8
0
100
AcDbLine
10
-11.341656035458637
20
17.896235923951402
30
0
11
11.341656035458636
21
-22.429652076048598
31
0
0
CIRCLE
5
124
100
AcDbEntity
8
0
100
AcDbCircle
10
0
20
17.27123592395418
30
0
40
0.62499999999999967
210
0
220
0
230
1
0
LINE
5
125
100
AcDbEntity
8
0
100
AcDbLine
10
-2.7587004569819435
20
17.896229501446843
30
0
11
3.2999999292569262
21
17.896243606659901
31
0
0
CIRCLE
5
126
100
AcDbEntity
8
0
100
AcDbCircle
10
10
20
-16.08042171546527
30
0
40
0.625
210
0
220
0
230
1
0
CIRCLE
5
127
100
AcDbEntity
8
0
100
AcDbCircle
10
-9.9999999999999982
20
-16.080421715465278
30
0
40
0.625
210
0
220
0
230
1
0
CIRCLE
5
128
100
AcDbEntity
8
0
100
AcDbCircle
10
0
20
0
30
0
40
0.12500000000000003
210
0
220
0
230
1
0
CIRCLE
5
129
100
AcDbEntity
8
0
100
AcDbCircle
10
0
20
0
30
0
40
1.2041594309641683
210
0
220
0
230
1
0
LINE
5
130
100
AcDbEntity
8
0
100
AcDbLine
10
-17.280607804784108
20
0
30
0
11
15.463876489085024
21
0
31
0
0
LINE
5
131
100
AcDbEntity
8
0
100
AcDbLine
10
-9.7708388219963869
20
15.483311687661814
30
0
11
-9.770838854308435
21
-8.4607682472482377
31
0
0
LINE
5
132
100
AcDbEntity
8
0
100
AcDbLine
10
9.7708388219963869
20
15.483311687661814
30
0
11
9.770838854308435
21
-8.4607682472482377
31
0
0
ARC
5
133
100
AcDbEntity
8
0
100
AcDbCircle
10
-7.4469799625103539
20
15.658830941780117
30
0
40
2.3304778495789158
210
0
220
0
230
1
100
AcDbArc
50
106.24735857909329
51
184.31930477415528
0
ARC
5
134
100
AcDbEntity
8
0
100
AcDbCircle
10
7.4469799625103512
20
15.658830941780122
30
0
40
2.3304778495789193
210
0
220
0
230
1
100
AcDbArc
50
-4.319304774155337
51
73.752641420906613
0
LINE
5
135
100
AcDbEntity
8
0
100
AcDbLine
10
-9.770838854308435
20
-8.4607682472482377
30
0
11
-11.341656038104484
21
-11.055953434274315
31
0
0
LINE
5
136
100
AcDbEntity
8
0
100
AcDbLine
10
9.770838854308435
20
-8.460768247248236
30
0
11
11.341656038104484
21
-11.055953434274315
31
0
0
LINE
5
137
100
AcDbEntity
8
0
100
AcDbLine
10
-11.341656038298513
20
-22.429652076048598
30
0
11
-11.341656038104484
21
-11.055953434274315
31
0
0
LINE
5
138
100
AcDbEntity
8
0
100
AcDbLine
10
11.341656038298513
20
-22.429652076048598
30
0
11
11.341656038104484
21
-11.055953434274315
31
0
0
CIRCLE
5
139
100
AcDbEntity
8
0
100
AcDbCircle
10
0
20
0
30
0
40
6.4500000000000002
210
0
220
0
230
1
0
LINE
5
140
100
AcDbEntity
8
0
100
AcDbLine
10
-8.0990121343646884
20
17.896235923951402
30
0
11
8.0990121343646884
21
17.896235923951402
31
0
0
ENDSEC
0
SECTION
2
OBJECTS
0
DICTIONARY
5
C
100
AcDbDictionary
3
ACAD_GROUP
350
D
3
ACAD_MLINESTYLE
350
17
0
DICTIONARY
5
D
100
AcDbDictionary
0
DICTIONARY
5
1A
330
C
100
AcDbDictionary
0
DICTIONARY
5
17
100
AcDbDictionary
0
ENDSEC
0
EOF
